<?xml version="1.0" encoding="utf-8" ?><svg xmlns="http://www.w3.org/2000/svg" xmlns:xlink="http://www.w3.org/1999/xlink" width="355" height="272" viewBox="0 0 355 272"><clipPath id="cl_3"><rect width="355" height="272"/></clipPath><g clip-path="url(#cl_3)"><path transform="translate(-669 -345)" d="M571.174 475.869C566.352 464.072 562.882 456.021 565.198 442.972C568.461 422.777 580.132 409.22 598.97 401.583C642.777 383.825 683.735 426.88 664.872 470.264C653.578 496.241 623.294 508.663 596.855 497.93C587.11 493.974 579.768 486.533 573.668 478.006C568.509 481.224 558.817 486.879 554.457 490.374C567.74 518.776 571.772 532.135 551.979 559.352C558.695 563.336 565.056 568.993 571.373 573.614C575.806 570.02 578.703 565.632 582.737 562.057C593.54 552.488 608.028 547.089 622.534 548.315C635.884 549.512 648.216 555.951 656.828 566.222C665.843 577.001 670.214 590.917 668.98 604.915C662.585 675.521 560.556 666.748 564.682 597.984C565.15 590.198 569.086 582.889 570.862 575.487C563.828 571.271 556.21 567.085 550.489 561.24C547.577 563.793 544.742 566.263 541.658 568.398C521.898 582.079 492.321 582.672 475.238 564.281C474.614 563.61 474.354 563.49 473.483 563.371L472.641 562.42C462.71 550.673 457.233 536.311 458.464 520.823C459.343 509.763 464.481 499.642 469.83 490.124C463.593 486.278 456.313 481.621 450.361 477.374C441.472 489.945 428.772 499.283 413.372 501.875C399.713 504.049 385.747 500.781 374.47 492.773C350.7 475.67 345.727 441.932 363.01 418.509C371.38 407.246 383.944 399.84 397.851 397.97C426.438 393.989 452.291 413.43 457.291 442.228C458.927 451.648 455.134 464.988 452.659 474.363C458.693 479.086 465.653 484.555 472.148 488.609C486.534 474.123 501.228 468.474 521.955 472.121C536.266 474.639 543.306 480.479 553.868 489.992C558.857 484.481 564.54 479.351 571.174 475.869ZM512.249 575.29C540.194 574.933 562.593 552.056 562.361 524.111C562.129 496.165 539.353 473.663 511.407 473.77C483.282 473.877 460.606 496.83 460.839 524.953C461.073 553.077 484.127 575.65 512.249 575.29ZM583.769 487.302C593.738 494.428 602.531 501.057 615.424 499.46C615.727 494.446 616.251 489.45 616.404 484.429C616.705 474.525 617.934 403.703 615.088 400.426C614.64 399.91 613.9 400.185 613.28 400.218C599.723 401.678 586.628 408.451 578.056 419.129C569.446 429.958 565.557 443.796 567.266 457.525C568.575 468.493 574.35 480.084 583.209 486.88L583.769 487.302ZM366.855 447.32C367.469 444.256 368.15 440 369.471 437.223C371.695 432.548 379.463 427.299 378.532 421.771C377.502 420.389 377.241 420.246 375.269 419.73C373.024 422.707 356.056 447.036 366.855 447.32ZM577.734 595.683C580.331 591.429 587.102 581.443 586.247 576.529C586.101 575.691 584.918 575.116 584.087 574.654C582.838 577.942 582.263 579.699 580.186 582.56C577.347 586.472 573.078 591.302 577.734 595.683Z"/><path fill="#14B37E" transform="translate(-669 -345)" d="M618.491 400.05C630.737 401.066 641.85 404.339 650.95 412.808C666.712 427.477 672.205 450.118 663.036 469.868C660.138 476.112 657.171 480.287 652.454 485.322C642.975 495.241 631.521 497.251 618.705 499.857C619.16 466.589 619.089 433.316 618.491 400.05Z"/><path transform="translate(-669 -345)" d="M749.575 485.682C734.144 473.016 724.399 460.321 722.561 439.972C720.788 420.339 723.561 404.437 736.206 388.773C748.013 374.15 769.387 364.204 787.893 362.518C804.454 361.02 820.921 366.241 833.594 377.007C844.006 385.701 851.996 396.938 856.789 409.628C874.838 397.803 893.877 391.139 915.509 395.731C955.944 404.314 979.222 442.929 970.509 482.983C966.634 501.552 955.531 517.816 939.65 528.188C921.236 539.981 903.253 541.55 882.462 536.858C879.034 536.079 875.638 535.165 872.282 534.12C869.93 555.238 864.481 568.59 847.68 582.669C838.79 590.118 821.823 598.025 810.017 597.543C808.297 597.397 807.63 597.462 806.082 596.649C837.889 594.891 863.99 570.837 868.334 539.279C872.679 507.72 854.049 477.509 823.9 467.221C793.751 456.933 760.54 469.453 744.686 497.085L743.854 496.42C745.643 492.779 747.551 489.198 749.575 485.682ZM907.242 516.328C934.334 512.981 953.587 488.312 950.252 461.219C946.917 434.125 922.256 414.862 895.161 418.185C868.05 421.511 848.772 446.19 852.109 473.3C855.447 500.409 880.134 519.677 907.242 516.328ZM727.918 410.679L725.75 418.095C745.527 422.199 765.237 426.87 784.985 431.141C801.257 434.66 816.376 439.369 832.953 441.493L835.517 434.685C830.129 433.092 824.531 431.867 819.03 430.695C791.373 424.804 763.92 418.088 736.132 412.802C733.477 412.297 730.465 411.589 727.918 410.679ZM751.592 484.352C764.489 466.421 791.774 458.125 812.91 462.689C817.75 463.69 823.075 464.681 827.823 465.891C828.798 458.585 829.76 451.325 831.878 444.244C806.827 438.417 781.075 433.593 756.021 427.597C747.365 425.525 733.547 423.269 725.493 420.786C725.153 444.485 724.412 456.946 742.059 475.112C745.152 478.278 748.331 481.359 751.592 484.352ZM728.979 407.759C742.709 411.969 756.059 414.326 770.096 417.284C781.802 419.751 793.431 422.586 805.131 425.12C815.718 427.58 826.267 430.206 836.772 432.996C842.447 424.84 847.308 417.555 855.016 411.113C838.437 380.092 823.03 364.621 785.953 365.614C757.908 372.482 740.431 379.723 728.979 407.759Z"/><path fill="#94D9B7" fill-opacity="0.98823529" transform="translate(-669 -345)" d="M895.161 418.185C922.256 414.862 946.917 434.125 950.252 461.219C953.587 488.312 934.334 512.981 907.242 516.328C880.134 519.677 855.447 500.409 852.109 473.3C848.772 446.19 868.05 421.511 895.161 418.185ZM874.833 506.509C876.575 505.587 878.296 504.627 879.995 503.629L879.962 501.566C877.441 499.981 875.103 498.123 872.989 496.025C872.488 495.528 872 495.018 871.526 494.495L871.023 494.983C870.393 495.582 870.06 495.855 869.385 496.378C868.49 498.218 868.999 499.437 869.414 501.578C870.146 503.274 872.258 504.958 873.681 506.287L874.833 506.509Z"/><path transform="translate(-669 -345)" d="M871.526 494.495C857.207 478.716 857.556 454.543 872.323 439.183C887.091 423.824 911.231 422.526 927.561 436.213C943.89 449.901 946.828 473.897 934.284 491.121C921.74 508.344 897.999 512.909 879.962 501.566C877.441 499.981 875.103 498.123 872.989 496.025C872.488 495.528 872 495.018 871.526 494.495Z"/><path fill="#94D9B7" transform="translate(-669 -345)" d="M897.335 430.211C917.799 427.925 936.249 442.643 938.569 463.103C940.889 483.564 926.202 502.038 905.745 504.391C885.241 506.75 866.714 492.021 864.389 471.513C862.064 451.005 876.823 432.503 897.335 430.211Z"/><path fill="#CFEADD" fill-opacity="0.82745099" transform="translate(-669 -345)" d="M872.989 496.025C875.103 498.123 877.441 499.981 879.962 501.566L879.995 503.629L878.688 502.651C876.413 503.263 876.234 503.249 874.404 504.64C874.543 505.306 874.652 505.852 874.833 506.509L873.681 506.287C872.258 504.958 870.146 503.274 869.414 501.578L872.989 496.025Z"/><path fill="#94D9B7" fill-opacity="0.97647059" transform="translate(-669 -345)" d="M871.526 494.495C872 495.018 872.488 495.528 872.989 496.025L869.414 501.578C868.999 499.437 868.49 498.218 869.385 496.378C870.06 495.855 870.393 495.582 871.023 494.983L871.526 494.495Z"/><path fill="#CFEADD" fill-opacity="0.6156863" transform="translate(-669 -345)" d="M874.833 506.509C874.652 505.852 874.543 505.306 874.404 504.64C876.234 503.249 876.413 503.263 878.688 502.651L879.995 503.629C878.296 504.627 876.575 505.587 874.833 506.509Z"/><path fill="#94D9B7" transform="translate(-669 -345)" d="M895.987 397.663C903.445 396.847 911.86 397.701 919.07 399.702C936.968 404.636 952.116 416.587 961.08 432.845C970.316 449.919 972.375 469.967 966.802 488.562C961.571 505.694 949.776 520.062 933.99 528.529C913.305 539.656 894.269 537.581 872.697 531.163C871.491 526.033 870.462 515.398 869.764 509.771C897.318 523.375 917.504 524.61 939.955 501.738C948.939 490.269 953.69 478.67 952.712 463.832C951.785 449.572 945.212 436.27 934.448 426.872C924.215 418.05 910.843 413.752 897.386 414.961C883.068 416.102 869.807 422.941 860.575 433.944C848.175 448.914 848.412 461.439 850.223 479.605C842.996 473.999 837.883 471.166 830.008 466.87C831.334 451.46 833.51 440.206 843.153 427.39C856.026 410.282 875.102 400.728 895.987 397.663Z"/><path transform="translate(-669 -345)" d="M779.091 425.238C782.856 425.22 784.279 425.156 787.991 425.872L787.943 426.26C786.366 426.59 785.726 426.522 784.125 426.561C781.288 426.677 776.142 426.974 773.548 425.916C775.478 425.15 777.014 425.285 779.091 425.238Z"/><path transform="translate(-669 -345)" d="M823.286 433.277C823.374 433.729 823.35 433.404 822.946 434.193C820.444 434.91 811.087 434.659 808.253 434.549L808.427 433.714C810.866 433.009 820.24 433.281 823.286 433.277Z"/><path transform="translate(-669 -345)" d="M793.827 429.208C795.545 428.93 803.683 429.322 805.337 429.824L804.904 430.435C800.602 430.381 796.964 431.07 792.643 430.326L793.415 429.925L793.827 429.208Z"/><path transform="translate(-669 -345)" d="M760.061 421.549C763.26 421.366 765.483 420.947 768.54 421.823C767.489 422.981 761.809 422.58 760.073 422.524L760.061 421.549Z"/><path transform="translate(-669 -345)" d="M757.575 421.49L760.061 421.549L760.073 422.524L757.926 422.805L757.575 421.49Z"/><path fill="#16181D" fill-opacity="0.81960785" transform="translate(-669 -345)" d="M757.926 422.805C756.967 422.621 756.741 422.524 755.814 422.215L755.986 421.7L757.575 421.49L757.926 422.805Z"/><path transform="translate(-669 -345)" d="M796.885 481.24C823.723 477.811 848.257 496.798 851.67 523.638C855.083 550.479 836.083 575.001 809.24 578.399C782.419 581.794 757.921 562.813 754.51 535.994C751.1 509.175 770.068 484.666 796.885 481.24ZM803.889 484.657L802.794 484.506C779.633 482.778 756.928 505.292 755.477 528.155C755.427 528.973 755.391 529.792 755.371 530.611C754.968 531.912 754.863 531.345 755.361 532.389C755.899 555.865 777.741 575.885 801 576.449C801.558 576.463 801.95 576.345 802.465 576.222L803.434 575.918C804.185 576.217 804.621 576.321 805.471 576.194C831.689 572.289 851.172 552.243 848.088 524.751C846.607 512.468 840.318 501.272 830.598 493.618C824.007 488.382 812.245 483.663 803.889 484.657Z"/><path fill="#242934" fill-opacity="0.35294119" transform="translate(-669 -345)" d="M805.558 515.826C806.323 517.851 805.969 522.059 805.332 524.168C804.512 521.746 804.992 518.275 805.558 515.826Z"/><path fill="#393839" fill-opacity="0.27843139" transform="translate(-669 -345)" d="M805.415 528.916C806.241 531.854 806.225 534.387 805.594 537.371L805.201 537.494L805.163 537.22C805.771 535.038 805.473 531.313 805.415 528.916Z"/><path fill="#242934" fill-opacity="0.58823532" transform="translate(-669 -345)" d="M805.415 528.916C805.473 531.313 805.771 535.038 805.163 537.22C804.948 534.39 804.851 531.704 805.415 528.916Z"/><path fill="#626566" fill-opacity="0.74901962" transform="translate(-669 -345)" d="M802.501 536.786C803.55 532.234 802.412 528.415 803.339 523.724C803.445 534.177 803.644 545.649 803.382 556.098C803.166 557.366 803.01 556.915 803.386 557.902L803.489 562.786L802.356 560.192C802.179 552.557 801.904 544.386 802.501 536.786Z"/><path fill="#16181D" fill-opacity="0.93333334" transform="translate(-669 -345)" d="M802.794 484.506L803.889 484.657L803.408 508.723C802.782 511.78 802.864 516.354 803.012 519.525L802.501 520.812C802.478 513.938 801.966 490.035 802.794 484.506Z"/><path fill="#16181D" fill-opacity="0.90588236" transform="translate(-669 -345)" d="M802.356 560.192L803.489 562.786L803.422 565.731C802.993 568.479 802.695 570.526 803.406 573.279L803.434 575.918L802.465 576.222C802.538 571.03 802.399 565.416 802.356 560.192Z"/><path fill="#4C4C4E" fill-opacity="0.87450981" transform="translate(-669 -345)" d="M803.012 519.525L803.436 519.495L803.339 523.724C802.412 528.415 803.55 532.234 802.501 536.786C802.339 531.462 802.339 526.135 802.501 520.812L803.012 519.525Z"/><path fill="#393839" fill-opacity="0.66274512" transform="translate(-669 -345)" d="M803.012 519.525C802.864 516.354 802.782 511.78 803.408 508.723C803.461 512.293 803.561 515.934 803.436 519.495L803.012 519.525Z"/><path fill="#393839" fill-opacity="0.71764708" transform="translate(-669 -345)" d="M803.406 573.279C802.695 570.526 802.993 568.479 803.422 565.731C803.441 568.151 803.528 570.888 803.406 573.279Z"/><path transform="translate(-669 -345)" d="M810.017 597.543C796.064 599.779 778.3 595.082 766.16 588.129C751.42 579.695 740.735 565.639 736.552 549.18C731.692 530.637 734.223 512.973 743.854 496.42L744.686 497.085C732.543 518.249 732.957 544.362 745.764 565.132C758.571 585.901 781.718 597.996 806.082 596.649C807.63 597.462 808.297 597.397 810.017 597.543Z"/></g></svg>