<?xml version="1.0" encoding="utf-8" ?><svg xmlns="http://www.w3.org/2000/svg" xmlns:xlink="http://www.w3.org/1999/xlink" width="374" height="372" viewBox="0 0 374 372"><clipPath id="cl_4"><rect y="-6.1035156e-05" width="374" height="372"/></clipPath><g clip-path="url(#cl_4)"><path fill="#010202" fill-opacity="0.98823529" transform="translate(-607 -652)" d="M700.903 699.596C709.441 699.227 720.145 699.599 728.85 699.612L783.484 699.636C812.987 699.652 842.542 699.269 872.044 699.456C874.723 699.531 888.025 699.959 889.349 701.407C892.362 705.789 891.56 714.934 891.552 719.847C891.532 731.859 892.118 734.785 879.524 735.102C879.389 738.596 878.553 751.741 880.579 753.232C886.849 757.843 895.616 760.902 902.136 766.065C917.035 778.086 926.591 795.499 928.728 814.523C929.684 822.944 929.48 833.194 929.484 841.788L929.508 879.038L929.511 910.096C929.49 931.361 929.552 948.877 909.546 961.971C901.308 967.363 894.33 968.865 884.623 969.921C872.009 970.3 857.573 969.959 844.766 969.943L777.179 969.977L731.931 969.998C718.224 970.025 698.783 970.814 686.012 967.753C675.993 964.72 665.018 955.82 659.978 946.872C652.968 934.425 654.009 919.162 654.046 905.385C654.061 892.34 654.186 879.297 654.424 866.255C654.569 852.48 653.68 833.955 654.608 820.612C654.904 815.91 655.668 811.249 656.889 806.698C664.281 779.915 682.833 767.082 705.613 754.143C706.182 748.259 705.971 741.627 705.949 735.662C703.302 735.336 700.663 734.959 698.031 734.533C696.903 733.461 695.538 731.632 694.525 730.357C694.559 722.338 693.085 712.321 695.532 704.707C696.531 701.596 698.109 700.812 700.903 699.596ZM706.279 755.07C700.672 758.961 694.873 761.884 689.511 765.535C672.955 776.808 660.234 794.064 657.168 814.18C654.971 828.601 656.682 846.768 656.527 862.204L655.819 899.012C655.36 915.584 653.198 934.674 663.408 948.869C669.582 957.454 680.31 965.53 690.943 966.879C711.68 969.509 733.524 968.323 754.441 968.247C792.419 968.024 830.398 968.058 868.375 968.35C886.297 968.641 901.579 968.346 915.482 955.055C927.849 943.232 927.906 928.867 927.944 912.684L927.896 856.123C927.881 841.302 928.702 818.165 925.216 804.483C922.213 792.642 916.162 781.793 907.665 773.016C903.838 769.214 899.592 765.859 895.008 763.016C890.17 759.966 882.792 757.153 878.9 753.511C876.97 751.705 877.817 738.299 877.594 735.14C847.718 734.452 815.801 734.979 785.802 735.005C760.628 735.027 732.195 734.366 707.222 735.244C707.472 741.415 708.016 749.17 706.279 755.07Z"/><path fill="#102625" transform="translate(-607 -652)" d="M802.464 778.679C805.136 775.104 807.267 772.211 810.574 769.235C823.581 757.53 843.489 756.503 857.412 767.105C864.857 772.753 869.762 781.12 871.053 790.376C871.597 794.484 871.31 798.532 871.086 802.658C873.925 802.572 877.167 802.372 879.974 802.686C900.04 804.928 914.968 820.204 915.309 840.602C915.535 851.132 911.476 861.303 904.063 868.785C901.817 871.085 894.566 876.096 894.224 877.107C894.928 877.987 895.181 878.305 895.974 879.121C904.771 887.195 909.456 896.613 909.894 908.629C910.279 919.829 906.169 930.718 898.481 938.872C890.715 947.152 879.925 951.931 868.574 952.119C855.355 952.414 845.594 948.616 836.011 939.44C834.185 937.692 830.024 932.786 829.333 930.477L827.736 928.25L827.202 928.193C820.044 939.963 812.261 949.851 798.213 952.735C777.809 956.924 763.615 949.148 751.8 933.668C750.386 934.467 750.666 934.406 749.605 935.761C727.698 964.538 680.484 954.011 673.431 917.144C669.423 899.346 679.084 885.59 692.591 875.418C673.572 865.801 665.021 843.794 673.906 824.248C678.275 814.701 686.286 807.3 696.149 803.7C707.953 799.36 717.745 801.198 728.788 806.276L728.599 801.986C728.628 799.956 728.647 797.606 728.837 795.603C729.784 785.971 734.494 777.103 741.944 770.926C750.519 763.935 761.513 760.62 772.523 761.707C782.43 762.683 793.163 767.779 799.482 775.551C800.514 776.587 801.519 777.559 802.464 778.679ZM848.274 874.971C857.925 862.449 857.658 844.924 847.63 832.702C837.601 820.48 820.466 816.796 806.3 823.816C792.135 830.835 784.688 846.702 788.339 862.084C791.99 877.466 805.773 888.293 821.582 888.198C832.042 888.136 841.889 883.256 848.274 874.971Z"/><path fill="#010202" fill-opacity="0.98823529" transform="translate(-607 -652)" d="M840.574 835.551L840.87 835.879C840.109 838.357 809.57 857.984 804.709 860.81L804.265 860.21C804.882 858.704 836.456 837.576 840.574 835.551Z"/><path fill="#32B98E" transform="translate(-607 -652)" d="M849.764 876.345C856.892 868.457 877.119 870.623 885.942 874.857C887.57 875.638 891.109 877.834 892.538 878.242C894.444 878.21 894.373 878.269 895.974 879.121C904.771 887.195 909.456 896.613 909.894 908.629C910.279 919.829 906.169 930.718 898.481 938.872C890.715 947.152 879.925 951.931 868.574 952.119C855.355 952.414 845.594 948.616 836.011 939.44C834.185 937.692 830.024 932.786 829.333 930.477C829.01 928.979 828.608 928.043 829.19 926.661C827.781 922.701 829.884 915.41 829.646 910.717C829.45 906.847 825.878 898.21 826.978 895.57L825.438 894.062C824.362 893.044 823.313 891.45 822.408 890.209C821.72 889.266 821.717 889.348 821.582 888.198C832.042 888.136 841.889 883.256 848.274 874.971L849.764 876.345Z"/><path fill="#010202" transform="translate(-607 -652)" d="M892.538 878.242C894.444 878.21 894.373 878.269 895.974 879.121C904.771 887.195 909.456 896.613 909.894 908.629C910.279 919.829 906.169 930.718 898.481 938.872C890.715 947.152 879.925 951.931 868.574 952.119C855.355 952.414 845.594 948.616 836.011 939.44C834.185 937.692 830.024 932.786 829.333 930.477C829.01 928.979 828.608 928.043 829.19 926.661C838.034 943.132 851.087 951.78 870.295 950.525C881.318 949.774 891.593 944.679 898.861 936.357C914.966 917.603 910.491 893.809 892.538 878.242Z"/><path fill="#102625" transform="translate(-607 -652)" d="M848.274 874.971L849.764 876.345C842.674 883.963 839.791 885.282 830.088 889.144C829.392 890.728 827.939 894.359 826.978 895.57L825.438 894.062C824.362 893.044 823.313 891.45 822.408 890.209C821.72 889.266 821.717 889.348 821.582 888.198C832.042 888.136 841.889 883.256 848.274 874.971Z"/><path fill="#F3F2F3" transform="translate(-607 -652)" d="M822.408 890.209C824.084 889.754 825.14 889.249 826.766 889.76C827.472 891.462 826.436 892.577 825.438 894.062C824.362 893.044 823.313 891.45 822.408 890.209Z"/><path fill="#010202" transform="translate(-607 -652)" d="M896.4 899.115L897.78 898.915L897.862 899.518C893.078 902.101 876.576 906.163 870.787 907.625L839.138 915.724C838.371 915.834 838.772 915.884 837.963 915.424C840.158 912.796 889.669 900.678 896.4 899.115Z"/><path fill="#32B98E" transform="translate(-607 -652)" d="M687.561 881.34C700.006 872.066 711.827 869.896 727.014 873.633L727.318 873.998C729.255 876.358 730.6 878.682 732.43 881.091C737.796 888.157 745.044 891.957 753.5 894.346C753.811 911.579 755.375 920.204 747.752 935.794L749.605 935.761C727.698 964.538 680.484 954.011 673.431 917.144L674.706 914.988C673.665 900.902 677.799 891.194 687.561 881.34Z"/><path fill="#010202" transform="translate(-607 -652)" d="M674.706 914.988C676.603 926.237 682.137 936.031 691.486 942.761C700.524 949.242 711.775 951.845 722.741 949.995C732.369 948.389 741.532 943.365 747.752 935.794L749.605 935.761C727.698 964.538 680.484 954.011 673.431 917.144L674.706 914.988Z"/><path fill="#010202" transform="translate(-607 -652)" d="M685.264 902.182C703.704 903.916 722.948 907.712 741.312 910.512C742.148 910.639 742.828 911.27 743.397 911.848C738.018 911.875 727.439 910.344 720.572 909.293C710.765 907.793 695.769 906.175 686.102 903.292C685.823 902.922 685.544 902.552 685.264 902.182Z"/><path fill="#32B98E" transform="translate(-607 -652)" d="M728.599 801.986C728.628 799.956 728.647 797.606 728.837 795.603C729.784 785.971 734.494 777.103 741.944 770.926C750.519 763.935 761.513 760.62 772.523 761.707C782.43 762.683 793.163 767.779 799.482 775.551L799.19 776.072C797.227 775.779 797.079 773.139 794.415 772.539C802.869 781.585 808.058 790.929 807.533 803.771C807.114 813.614 802.765 822.877 795.458 829.485C790.647 833.861 785.774 836.145 779.884 838.671C775.098 834.286 773.42 833.326 767.493 830.531C767.506 823.718 768.011 781.27 766.889 777.488C764.2 781.894 766.283 821.16 765.568 830.141C759.626 829.105 753.555 829.041 747.592 829.953C743.501 817.947 739.455 814.997 730.662 806.48C730.508 806.33 730.386 802.418 730.376 801.918L729.248 801.22L728.599 801.986Z"/><path fill="#010202" transform="translate(-607 -652)" d="M728.599 801.986C728.628 799.956 728.647 797.606 728.837 795.603C729.784 785.971 734.494 777.103 741.944 770.926C750.519 763.935 761.513 760.62 772.523 761.707C782.43 762.683 793.163 767.779 799.482 775.551L799.19 776.072C797.227 775.779 797.079 773.139 794.415 772.539C789.053 768.239 782.132 764.065 775.197 763.455C748.46 761.103 731.454 775.915 730.376 801.918L729.248 801.22L728.599 801.986Z"/><path fill="#32B98E" transform="translate(-607 -652)" d="M692.591 875.418C673.572 865.801 665.021 843.794 673.906 824.248C678.275 814.701 686.286 807.3 696.149 803.7C707.953 799.36 717.745 801.198 728.788 806.276L729.226 807.124L728.523 808.344C738.203 815.251 741.876 819.761 745.775 830.785C725.966 840.543 724.051 851.819 726.89 871.966C716.216 868.462 705.372 868.779 695.228 874.093C693.785 875.968 689.498 878.315 687.561 881.34C677.799 891.194 673.665 900.902 674.706 914.988L673.431 917.144C669.423 899.346 679.084 885.59 692.591 875.418Z"/><path fill="#010202" transform="translate(-607 -652)" d="M692.591 875.418C673.572 865.801 665.021 843.794 673.906 824.248C678.275 814.701 686.286 807.3 696.149 803.7C707.953 799.36 717.745 801.198 728.788 806.276L729.226 807.124L728.523 808.344C718.231 803.12 709.742 801.343 698.35 805.043C688.657 808.121 680.583 814.922 675.903 823.952C671.653 832.448 670.942 842.282 673.926 851.301C676.454 859.021 686.691 873.42 695.228 874.093C693.785 875.968 689.498 878.315 687.561 881.34C677.799 891.194 673.665 900.902 674.706 914.988L673.431 917.144C669.423 899.346 679.084 885.59 692.591 875.418Z"/><path fill="#010202" transform="translate(-607 -652)" d="M703.464 810.588L704.423 811.03C705.624 812.856 706.688 859.734 706.285 864.932L705.62 864.554C704.365 861.861 703.573 816.76 703.464 810.588Z"/><path fill="#F3F2F3" transform="translate(-607 -652)" d="M863.855 822.302C866.631 825.961 887.794 854.329 887.553 856.83C882.652 851.942 867.969 830.079 863.301 823.263L863.855 822.302Z"/><path fill="#F3F2F3" transform="translate(-607 -652)" d="M810.484 919.71L812.702 919.627L813.293 920.18C811.282 921.516 781.131 924.137 776.371 924.604C774.904 924.669 774.614 924.817 773.292 924.182C774.835 922.916 805.536 920.22 810.484 919.71Z"/><path fill="#F3F2F3" transform="translate(-607 -652)" d="M845.745 789.75C848.076 789.532 848.742 789.585 851.08 789.848C849.921 791.06 823.245 793.541 819.665 793.937C817.247 794.377 814.528 794.5 812.057 794.685C820.304 791.326 836.546 790.637 845.745 789.75Z"/><path fill="#F3F2F3" transform="translate(-607 -652)" d="M772.659 858.545C773.126 858.523 773.594 858.679 774.082 858.787L773.887 859.336C770.952 860.979 746.722 867.193 742.115 868.431L741.044 868.534L740.758 868.063C742.515 866.391 768.659 859.652 772.659 858.545Z"/><path fill="#F3F2F3" transform="translate(-607 -652)" d="M784.147 875.845L784.672 876.431C784.565 877.788 784.288 878.168 783.531 879.277C776.878 889.032 770.333 891.183 759.642 893.247L759.215 892.583C759.84 891.379 769.619 889.899 772.493 888.017C778.52 884.071 780.108 881.601 784.147 875.845Z"/><path fill="#F3F2F3" transform="translate(-607 -652)" d="M864.393 808.918C864.879 815.03 851.678 821.972 846.858 824.029L846.746 823.263C847.455 821.988 849.169 821.392 850.63 820.837C855.729 818.9 860.234 813.041 864.393 808.918Z"/><path fill="#888F8F" transform="translate(-607 -652)" d="M863.301 823.263C862.386 822.018 862.403 822.035 861.857 820.586L862.328 820.452L863.855 822.302L863.301 823.263Z"/><path fill="#32B98E" transform="translate(-607 -652)" d="M700.344 701.003C710.381 700.388 726.495 700.937 737.066 700.939L810.132 700.962L858.158 700.997C866.725 701.009 877.622 700.658 885.903 701.875C892.376 702.825 890.352 724.712 889.281 729.294C888.761 731.52 887.535 732.276 885.764 733.363C877.19 733.984 863.053 733.575 854.119 733.544L803.708 733.582L737.844 733.826C732.667 733.826 702.259 734.746 698.589 731.956C694.829 729.098 696.041 710.917 696.67 705.372C698.005 703.381 698.653 702.757 700.344 701.003Z"/></g></svg>