<?xml version="1.0" encoding="utf-8" ?><svg xmlns="http://www.w3.org/2000/svg" xmlns:xlink="http://www.w3.org/1999/xlink" width="1086" height="968" viewBox="0 0 1086 968"><clipPath id="cl_3"><rect width="1086" height="968"/></clipPath><g clip-path="url(#cl_3)"><path fill="#085C44" transform="matrix(2 0 0 2 -468 -192)" d="M607.172 321.211C613.582 326.261 616.319 360.129 615.952 368.502C613.052 434.657 542.807 455.556 495.166 483.638C484.384 489.993 472.357 496.992 464.301 506.746C459.758 512.482 458.626 520.056 456.225 526.82C452.577 537.095 443.789 539.136 434.259 535.195C421.725 528.302 426.392 513.515 430.156 503.058C446.34 458.104 498.312 443.538 535.567 421.078C562.83 404.643 594.725 385.857 606.203 354.428C610.29 343.174 609.169 332.778 607.172 321.211Z"/><path fill="#085C44" transform="matrix(2 0 0 2 -468 -192)" d="M578.416 166.605C606.984 166.868 596.718 196.161 587.251 211.186C564.532 247.245 523.258 259.796 488.14 279.697C471.055 289.379 454.342 300.227 440.435 314.186C424.111 330.34 415.621 345.774 415.508 368.991C416.098 373.04 417.342 376.299 417.902 380.759C410.807 366.34 407.685 349.825 408.015 333.845C409.248 274.15 470.156 248.254 515.04 223.994C528.659 216.633 543.66 210.01 555.116 199.397C564.014 191.096 563.801 182.836 569.229 172.961C571.471 168.883 574.072 167.575 578.416 166.605Z"/><path fill="#085C44" transform="matrix(2 0 0 2 -468 -192)" d="M550.949 459.437C558.914 460.447 575.875 478.272 581.09 484.924C590 496.289 606.295 521.66 590.781 534.338C582.32 541.252 572.84 536.416 567.238 528.061C566.137 524.893 565.918 522.719 564.423 519.202C556.66 500.943 528.695 487.107 510.783 480.269C521.723 473.735 538.918 465.808 550.949 459.437Z"/><path fill="#7BAF9C" transform="matrix(2 0 0 2 -468 -192)" d="M508.904 273.939L509.796 274.039C512.078 277.061 510.017 413.821 510.492 428.872C506.563 431.413 498.658 434.943 494.107 437.055C492.945 437.403 493.478 437.456 492.499 437.051C491.87 432.294 492.032 423.577 492.029 418.665L492.036 389L491.997 282.996C497.625 280.069 503.304 276.944 508.904 273.939Z"/><path fill="#085C44" transform="matrix(2 0 0 2 -468 -192)" d="M442.318 166.219C458.347 167.05 455.034 176.891 460.376 187.494C468.029 202.682 494.16 215.865 509.499 221.335C504.681 224.612 491.106 231.276 485.376 234.284L468.846 243.579C450.31 231.113 432.549 211.197 428.124 188.692C425.764 176.69 429.253 168.02 442.318 166.219Z"/><path fill="#7BAF9C" transform="matrix(2 0 0 2 -468 -192)" d="M527.946 264.482C529.523 266.767 527.377 403.189 528.399 419.234C524.753 421.353 521.745 422.766 517.905 424.555L517.48 424.429C516.459 422.472 516.993 410.932 516.997 407.911L516.975 374.847C517.105 340.027 516.991 305.207 516.633 270.389C519.884 268.377 524.449 266.239 527.946 264.482Z"/><path fill="#7BAF9C" transform="matrix(2 0 0 2 -468 -192)" d="M542.468 257.527C542.608 257.66 542.77 257.773 542.886 257.927C544.409 259.946 543.492 395.401 543.5 410.88C540.29 412.712 538.901 413.335 535.443 414.671C533.671 375.549 535.156 335.365 534.544 296.133C534.363 284.55 534.887 272.669 534.458 261.115C536.99 259.89 539.874 258.68 542.468 257.527Z"/><path fill="#7BAF9C" transform="matrix(2 0 0 2 -468 -192)" d="M484.756 287.485L485.353 287.691C486.419 289.845 485.983 299.162 485.972 302.203L485.964 330.083C485.964 364.607 486.04 399.135 485.923 433.657C485.895 441.781 485.638 442.096 477.727 442.975C477.303 440.601 477.294 431.411 477.255 428.594C477.112 417.807 477.055 407.02 477.085 396.232L477.231 291.71C479.554 290.302 482.352 288.824 484.756 287.485Z"/><path fill="#7BAF9C" transform="matrix(2 0 0 2 -468 -192)" d="M549.627 259.087L558.451 258.67L558.456 360.292L558.599 388.378C558.615 392.195 558.687 396.616 558.406 400.463C558.329 401.523 556.638 402.389 555.676 402.988L549.497 406.046C548.342 358.543 548.966 306.72 549.627 259.087Z"/><path fill="#7BAF9C" transform="matrix(2 0 0 2 -468 -192)" d="M470.255 296.465L470.861 296.604C471.967 298.519 471.438 312.631 471.441 315.81L471.502 353.555C471.545 381.767 472.358 414.18 471.454 442.066C469.179 442.178 466.361 442.104 464.039 442.109C463.605 439.306 463.588 431.294 463.523 428.253C463.332 417.285 463.236 406.315 463.234 395.346C463.023 363.942 463.029 332.538 463.251 301.134C465.288 299.504 468.018 297.888 470.255 296.465Z"/><path fill="#7BAF9C" transform="matrix(2 0 0 2 -468 -192)" d="M450.678 311.887L451.393 312.305C451.812 315.572 451.536 320.85 451.53 324.377L451.511 347.5L451.562 422.902L441.639 422.87C439.896 420.447 440.408 328.421 440.853 319.45C443.755 316.901 447.534 314.231 450.678 311.887Z"/><path fill="#7BAF9C" transform="matrix(2 0 0 2 -468 -192)" d="M434.688 327.84C435.199 329.756 434.9 339.686 434.968 342.22C435.688 369.106 434.711 396.165 435.208 423.031L423.611 422.964C423.487 422.845 423.344 422.742 423.239 422.606C420.629 419.192 422.12 359.56 422.922 351.043C423.629 343.523 428.841 332.684 434.688 327.84Z"/><path fill="#7BAF9C" transform="matrix(2 0 0 2 -468 -192)" d="M573.568 282.538L583.873 282.458L583.633 340.672C583.683 352.195 584.403 370.337 583.649 381.118L580.219 384.092C578.06 386.062 575.808 387.794 573.52 389.609L573.568 282.538Z"/><path fill="#7BAF9C" transform="matrix(2 0 0 2 -468 -192)" d="M590.086 282.554C594.018 282.606 598.04 282.483 601.98 282.406C601.602 299.37 602.127 316.62 602.014 333.615C601.917 348.309 602 353.888 594.677 366.876C593.042 369.217 591.249 371.526 589.526 373.81C589.43 343.39 589.616 312.97 590.086 282.554Z"/></g></svg>