<?xml version="1.0" encoding="utf-8" ?><svg xmlns="http://www.w3.org/2000/svg" xmlns:xlink="http://www.w3.org/1999/xlink" viewBox="180 300 1720 1380"><path fill="#085C44" transform="scale(2 2)" d="M607.172 321.211C613.582 326.261 616.319 360.129 615.952 368.502C613.052 434.657 542.807 455.556 495.166 483.638C484.384 489.993 472.357 496.992 464.301 506.746C459.758 512.482 458.626 520.056 456.225 526.82C452.577 537.095 443.789 539.136 434.259 535.195C421.725 528.302 426.392 513.515 430.156 503.058C446.34 458.104 498.312 443.538 535.567 421.078C562.83 404.643 594.725 385.857 606.203 354.428C610.29 343.174 609.169 332.778 607.172 321.211Z"/><path fill="#085C44" transform="scale(2 2)" d="M578.416 166.605C606.984 166.868 596.718 196.161 587.251 211.186C564.532 247.245 523.258 259.796 488.14 279.697C471.055 289.379 454.342 300.227 440.435 314.186C424.111 330.34 415.621 345.774 415.508 368.991C416.098 373.04 417.342 376.299 417.902 380.759C410.807 366.34 407.685 349.825 408.015 333.845C409.248 274.15 470.156 248.254 515.04 223.994C528.659 216.633 543.66 210.01 555.116 199.397C564.014 191.096 563.801 182.836 569.229 172.961C571.471 168.883 574.072 167.575 578.416 166.605Z"/><path fill="#085C44" transform="scale(2 2)" d="M311.482 618.623C365.171 614.123 368.902 696.571 317.098 698.561C305.636 699.001 298.65 694.476 290.674 686.657L290.569 699.625L290.519 727.983L274.492 727.892C274.995 692.268 273.998 656.203 274.42 620.547L290.696 620.551C290.987 623.457 290.986 627.362 291.065 630.35C296.49 623.002 302.928 620.285 311.482 618.623ZM317.238 683.247C330.779 681.338 340.259 668.881 338.489 655.321C336.72 641.761 324.362 632.154 310.784 633.783C301.875 634.852 294.227 640.624 290.756 648.898C287.284 657.171 288.524 666.672 294.002 673.778C299.481 680.883 308.353 684.499 317.238 683.247Z"/><path fill="#085C44" transform="scale(2 2)" d="M406.866 618.229C455.145 619.285 456.151 696.168 408.057 698.41C396.379 698.954 388.767 694.625 380.544 686.815L380.455 703.111L380.45 727.968L364.487 727.934C364.866 692.214 364.222 656.261 364.512 620.465L380.482 620.495C380.616 623.565 380.644 626.783 380.717 629.868C389.66 621.205 394.406 618.859 406.866 618.229ZM406.763 683.204C420.516 681.551 430.291 669.013 428.538 655.272C426.785 641.532 414.176 631.849 400.449 633.701C386.862 635.534 377.299 647.987 379.034 661.587C380.768 675.187 393.151 684.84 406.763 683.204Z"/><path fill="#085C44" transform="scale(2 2)" d="M631.033 631.828C632.287 630.043 633.673 628.355 635.179 626.778C645.411 615.936 664.902 615.517 675.619 625.901C686.988 636.916 685.39 654.664 685.37 669.201L685.345 696.168C680.042 696.108 674.739 696.113 669.437 696.184C669.012 684.087 672.089 646.799 664.501 638.823C661.198 635.35 655.821 633.281 651.071 633.186C647.559 633.116 644.4 634.275 641.924 636.792C632.824 646.041 635.288 668.959 635.412 681.088L635.382 696.447C631.135 695.988 623.817 696.183 619.57 696.527C619.343 680.133 621.061 660.342 617.731 644.235C615.602 633.938 598.92 628.978 591.473 637.793C583.582 647.135 585.024 662.336 585.1 673.925L585.293 696.399C580.442 696.091 574.825 696.284 569.908 696.337L569.717 620.511L585.435 620.521L585.481 630.24C591.534 623.072 595.008 620.331 604.414 618.674C618.207 617.729 622.966 621.572 631.033 631.828Z"/><path fill="#085C44" transform="scale(2 2)" d="M517.282 618.205C518.978 618.072 520.681 618.043 522.382 618.12C549.293 619.135 559.292 639.534 558.23 663.972L495.679 664.014C502.796 687.253 526.593 691.006 543.07 675.311C545.953 674.95 553.08 680.441 555.818 682.32C533.802 710.117 485.712 701.424 480.771 664.792C477.521 640.7 492.619 620.925 517.282 618.205ZM496.36 651.163L520.376 651.299C527.9 651.22 535.425 651.184 542.949 651.19C540.442 643.579 538.369 638.575 530.712 634.255C527.922 632.681 521.907 631.598 518.747 632.17C505.905 633.84 500.746 639.449 496.36 651.163Z"/><path fill="#085C44" transform="scale(2 2)" d="M731.384 618.27C732.898 618.148 734.417 618.098 735.937 618.118C763.453 618.506 773.033 639.071 772.482 663.724C754.933 662.733 728.447 663.774 710.442 663.95C717.673 687.984 740.859 690.493 757.64 674.79C759.405 674.539 767.255 680.049 769.146 681.239C769.105 689.544 749.367 697.303 742.12 698.31C686.703 706.007 675.303 625.167 731.384 618.27ZM711.074 651.283C718.507 651.342 725.941 651.359 733.375 651.333C740.453 651.331 750.223 651.61 757.083 651.145C754.384 640.031 747.174 631.324 734.752 632.23C722.141 632.969 714.301 638.747 711.074 651.283Z"/><path fill="#085C44" transform="scale(2 2)" d="M141.35 587.208C155.605 586.656 168.004 593.253 177.042 603.904C173.257 608.26 170.377 611.301 166.266 615.339C159.92 608.446 154.762 603.883 144.748 602.935C138.701 602.362 132.213 603.791 127.563 607.911C124.658 610.436 122.971 614.082 122.925 617.931C122.816 631.205 146.235 635.032 156.23 639.087C169.144 643.781 182.283 651.814 181.24 667.836C179.668 691.995 159.84 699.06 139.165 698.288C123.176 696.959 115.364 693.374 103.512 682.535C104.969 680.192 111.689 672.902 113.93 670.186C114.993 671.257 116.072 672.313 117.165 673.353C125.586 681.314 133.785 683.064 145.23 682.96C153.88 682.881 165.678 678.267 164.988 667.824C164.211 657.268 150.777 653.478 142.157 650.984C126.749 646.596 108.779 640.9 107.365 621.923C105.599 598.232 120.176 588.686 141.35 587.208Z"/><path fill="#085C44" transform="scale(2 2)" d="M550.949 459.437C558.914 460.447 575.875 478.272 581.09 484.924C590 496.289 606.295 521.66 590.781 534.338C582.32 541.252 572.84 536.416 567.238 528.061C566.137 524.893 565.918 522.719 564.423 519.202C556.66 500.943 528.695 487.107 510.783 480.269C521.723 473.735 538.918 465.808 550.949 459.437Z"/><path fill="#085C44" transform="scale(2 2)" d="M244.827 620.483C250.076 620.571 255.327 620.592 260.577 620.546L260.636 646.125L260.6 696.462C255.406 696.22 250.203 696.229 245.011 696.489L244.847 686.543C237.404 693.78 232.03 698.724 220.766 698.623C212.774 698.551 205.135 696.425 199.491 690.391C188.712 678.866 190.305 661.148 190.418 646.471L190.672 620.481C195.982 620.609 201.294 620.644 206.605 620.589C206.534 630.339 206.491 640.135 206.476 649.865C206.466 656.133 206.108 662.433 207.304 668.519C209.137 677.851 216.319 684.657 226.105 683.547C240.687 682.416 245.359 668.718 245.061 656.187C245.01 644.142 244.924 632.378 244.827 620.483Z"/><path fill="#7BAF9C" transform="scale(2 2)" d="M508.904 273.939L509.796 274.039C512.078 277.061 510.017 413.821 510.492 428.872C506.563 431.413 498.658 434.943 494.107 437.055C492.945 437.403 493.478 437.456 492.499 437.051C491.87 432.294 492.032 423.577 492.029 418.665L492.036 389L491.997 282.996C497.625 280.069 503.304 276.944 508.904 273.939Z"/><path fill="#085C44" transform="scale(2 2)" d="M819.294 618.62C820.263 618.572 821.233 618.535 822.203 618.507C830.163 618.292 837.927 620.44 843.734 626.156C855.242 637.484 853.622 655.377 853.522 670.287C853.446 678.933 853.415 687.58 853.428 696.226C848.435 696.093 842.603 696.255 837.547 696.288C838.12 682.954 838.131 669.558 837.598 656.198C837.284 648.3 834.96 639.219 827.536 634.989C822.351 632.035 817.387 632.856 811.936 634.318C796.494 642.143 799.263 660.948 799.01 675.329C798.89 682.166 799.064 689.178 799.147 696.018L783.399 696.097C783.79 673.207 783.866 643.843 782.895 620.937C788.216 620.45 793.638 620.577 798.987 620.594L799.407 630.274C806.617 623.157 809.23 620.807 819.294 618.62Z"/><path fill="#085C44" transform="scale(2 2)" d="M442.318 166.219C458.347 167.05 455.034 176.891 460.376 187.494C468.029 202.682 494.16 215.865 509.499 221.335C504.681 224.612 491.106 231.276 485.376 234.284L468.846 243.579C450.31 231.113 432.549 211.197 428.124 188.692C425.764 176.69 429.253 168.02 442.318 166.219Z"/><path fill="#7BAF9C" transform="scale(2 2)" d="M448.218 759.117L448.745 759.083C458.476 758.525 462.619 760.778 469.531 766.863C469.074 757.929 473.335 760.434 480.861 760.488L480.944 813.116C477.224 812.921 473.881 813.498 470.243 812.707C468.778 810.4 470.472 810.517 469.462 807.502C468.064 807.819 466.496 809.373 465.258 810.381C449.478 821.942 429.577 811.067 425.768 792.793C424.066 785.016 425.615 776.881 430.055 770.273C434.585 763.623 440.538 760.5 448.218 759.117ZM455.267 804.351C461.609 803.657 467.088 799.606 469.61 793.745C472.132 787.885 471.308 781.121 467.453 776.038C463.598 770.955 457.307 768.338 450.983 769.186C441.37 770.476 434.583 779.257 435.756 788.885C436.928 798.513 445.626 805.407 455.267 804.351Z"/><path fill="#085C44" transform="scale(2 2)" d="M878.198 596.697C883.181 596.879 888.471 596.676 893.479 596.575C893.328 604.58 893.337 612.586 893.506 620.59C901.154 620.507 908.802 620.471 916.451 620.481L916.475 634.991C908.869 634.658 901.059 634.87 893.431 634.982C893.002 644.433 893.208 654.151 893.256 663.567C893.354 682.707 897.402 685.077 915.33 680.616C915.878 684.529 916.361 688.45 916.78 692.379C916.888 693.098 917.083 694.716 916.333 695.065C902.682 701.409 880.705 696.449 878.538 679.616C876.643 664.895 877.311 648.914 877.989 634.74C872.568 634.736 866.403 634.592 861.051 634.937L861.01 620.519L877.533 620.525C877.541 616.83 876.882 598.382 878.198 596.697Z"/><path fill="#7BAF9C" transform="scale(2 2)" d="M637.619 758.688C657.82 758.089 664.492 773.424 664.832 790.803C652.429 791.502 633.728 790.959 620.89 791C627.97 808.365 640.214 808.883 654.538 799.013C657.696 800.828 659.71 802.148 662.686 804.258C650.517 814.913 634.683 820.009 620.348 809.253C602.584 795.924 607.918 765.16 630.023 759.823C632.68 759.182 634.872 758.934 637.619 758.688ZM621.182 782.389C626.564 782.283 633.122 782.539 638.241 782.315L654.448 782.336C651.706 773.65 646.707 766.81 636.447 768.114C626.687 770.069 624.668 773.513 621.182 782.389Z"/><path fill="#7BAF9C" transform="scale(2 2)" d="M339.523 736.211C340.204 736.159 340.888 736.128 341.571 736.119C351.619 736.043 358.443 740.629 365.168 747.364C363.172 749.737 360.285 752.382 358.006 754.584C353.068 750.346 348.147 746.564 341.173 745.976C337.924 745.685 331.583 747.976 329.609 750.592C318.896 764.91 342.744 769.811 351.937 773.345C367.879 779.473 374.684 794.698 361.277 808.085C354.98 814.373 345.724 814.589 337.375 814.484C326.63 813.336 320.982 810.453 312.634 803.561C314.875 800.952 317.986 798.038 320.49 795.579C327.211 801.218 332.911 804.556 342.293 804.633C348.075 804.681 358.156 800.899 357.114 793.502C355.416 784.783 344.305 781.601 336.146 779.255C319.2 774.383 309.464 760.618 320.705 744.177C324.3 738.918 332.995 736.857 339.523 736.211Z"/><path fill="#7BAF9C" transform="scale(2 2)" d="M527.946 264.482C529.523 266.767 527.377 403.189 528.399 419.234C524.753 421.353 521.745 422.766 517.905 424.555L517.48 424.429C516.459 422.472 516.993 410.932 516.997 407.911L516.975 374.847C517.105 340.027 516.991 305.207 516.633 270.389C519.884 268.377 524.449 266.239 527.946 264.482Z"/><path fill="#085C44" transform="scale(2 2)" d="M454.49 586.007L470.029 586.022L470.202 665.145C470.227 669.73 470.847 694.155 469.547 696.11L454.499 696.245C455.178 684.199 454.757 668.271 454.724 655.996L454.49 586.007Z"/><path fill="#7BAF9C" transform="scale(2 2)" d="M578.384 759.194C608.3 757.348 602.607 793.112 602.575 813.27L591.494 813.404C591.55 806.071 591.529 798.553 591.624 791.239C591.801 777.763 588.777 764.947 572.21 769.82C559.642 777.126 563.223 800.02 563.385 813.002L552.669 812.956C552.562 796.58 552.107 776.618 552.87 760.503L563.96 760.535L563.974 767.255C569.024 762.156 571.245 760.299 578.384 759.194Z"/><path fill="#7BAF9C" transform="scale(2 2)" d="M542.468 257.527C542.608 257.66 542.77 257.773 542.886 257.927C544.409 259.946 543.492 395.401 543.5 410.88C540.29 412.712 538.901 413.335 535.443 414.671C533.671 375.549 535.156 335.365 534.544 296.133C534.363 284.55 534.887 272.669 534.458 261.115C536.99 259.89 539.874 258.68 542.468 257.527Z"/><path fill="#7BAF9C" transform="scale(2 2)" d="M484.756 287.485L485.353 287.691C486.419 289.845 485.983 299.162 485.972 302.203L485.964 330.083C485.964 364.607 486.04 399.135 485.923 433.657C485.895 441.781 485.638 442.096 477.727 442.975C477.303 440.601 477.294 431.411 477.255 428.594C477.112 417.807 477.055 407.02 477.085 396.232L477.231 291.71C479.554 290.302 482.352 288.824 484.756 287.485Z"/><path fill="#7BAF9C" transform="scale(2 2)" d="M515.351 759.614C547.804 756.147 541.646 791.144 541.544 812.944L530.977 812.914C531.016 807.648 531.013 802.263 531.062 797.003C531.191 783.265 531.818 765.169 512.143 769.752C499.212 776.667 501.964 800.185 502.257 812.835L492.233 812.94C491.32 798.824 492.038 775.489 491.952 760.508L503.045 760.518L502.969 767.542C507.091 762.811 509.296 761.327 515.351 759.614Z"/><path fill="#7BAF9C" transform="scale(2 2)" d="M549.627 259.087L558.451 258.67L558.456 360.292L558.599 388.378C558.615 392.195 558.687 396.616 558.406 400.463C558.329 401.523 556.638 402.389 555.676 402.988L549.497 406.046C548.342 358.543 548.966 306.72 549.627 259.087Z"/><path fill="#7BAF9C" transform="scale(2 2)" d="M470.255 296.465L470.861 296.604C471.967 298.519 471.438 312.631 471.441 315.81L471.502 353.555C471.545 381.767 472.358 414.18 471.454 442.066C469.179 442.178 466.361 442.104 464.039 442.109C463.605 439.306 463.588 431.294 463.523 428.253C463.332 417.285 463.236 406.315 463.234 395.346C463.023 363.942 463.029 332.538 463.251 301.134C465.288 299.504 468.018 297.888 470.255 296.465Z"/><path fill="#7BAF9C" transform="scale(2 2)" d="M450.678 311.887L451.393 312.305C451.812 315.572 451.536 320.85 451.53 324.377L451.511 347.5L451.562 422.902L441.639 422.87C439.896 420.447 440.408 328.421 440.853 319.45C443.755 316.901 447.534 314.231 450.678 311.887Z"/><path fill="#7BAF9C" transform="scale(2 2)" d="M398.625 758.646C408.009 757.76 415.999 761.4 422.174 768.291C419.796 770.288 416.756 772.5 414.262 774.393C402.558 763.7 386.438 767.895 383.994 783.573C383.201 788.875 384.603 794.272 387.877 798.517C395.51 808.395 405.538 805.78 413.952 798.882C416 799.918 420.473 803.89 422.382 805.527C417.879 809.724 412.248 813.353 406.147 814.599C399.091 816.033 391.755 814.523 385.84 810.418C372.038 801.002 368.715 783.806 378.235 770.106C383.515 762.507 390.014 760.174 398.625 758.646Z"/><path fill="#7BAF9C" transform="scale(2 2)" d="M434.688 327.84C435.199 329.756 434.9 339.686 434.968 342.22C435.688 369.106 434.711 396.165 435.208 423.031L423.611 422.964C423.487 422.845 423.344 422.742 423.239 422.606C420.629 419.192 422.12 359.56 422.922 351.043C423.629 343.523 428.841 332.684 434.688 327.84Z"/><path fill="#7BAF9C" transform="scale(2 2)" d="M573.568 282.538L583.873 282.458L583.633 340.672C583.683 352.195 584.403 370.337 583.649 381.118L580.219 384.092C578.06 386.062 575.808 387.794 573.52 389.609L573.568 282.538Z"/><path fill="#7BAF9C" transform="scale(2 2)" d="M590.086 282.554C594.018 282.606 598.04 282.483 601.98 282.406C601.602 299.37 602.127 316.62 602.014 333.615C601.917 348.309 602 353.888 594.677 366.876C593.042 369.217 591.249 371.526 589.526 373.81C589.43 343.39 589.616 312.97 590.086 282.554Z"/><path fill="#7BAF9C" transform="scale(2 2)" d="M699.188 759.276C701.549 759.032 704.155 759.105 706.547 759.102L706.521 769.641C677.896 766.022 683.752 793.636 683.901 813.021C680.427 813.192 676.737 813.237 673.242 813.34C672.809 796.009 672.96 777.943 672.887 760.553C676.434 760.644 680.463 760.513 684.048 760.481C683.959 763.649 683.858 765.873 683.484 769.019C688.735 762.893 691.056 760.445 699.188 759.276Z"/></svg>